<?xml version="1.0" encoding="UTF-8"?>
<svg xmlns="http://www.w3.org/2000/svg"
     width="512" height="512" viewBox="0 0 512 512"
     role="img" aria-labelledby="anonTitle anonDesc">
  <title id="anonTitle">AnonForge icon</title>
  <desc id="anonDesc">Icône fournie par l'utilisateur : silhouette d'utilisateur stylisée</desc>

  <!-- Background (use site background tone) -->
  <rect width="100%" height="100%" fill="#0f0f0f"/>

  <!-- Main silhouette outline (from provided vector) -->
  <path
    fill="none"
    stroke="#ffffff"
    stroke-width="32"
    stroke-linecap="round"
    stroke-linejoin="round"
    d="M256,128c-48,0 -96,32 -96,96s48,96 96,96s96,-32 96,-96S304,128 256,128z
       M256,272c-32,0 -64,-24 -64,-64s32,-64 64,-64s64,24 64,64S288,272 256,272z
       M352,352H160c-32,0 -64,32 -64,64v32h320v-32C416,384 384,352 352,352z
       M128,416c0,-16 16,-32 32,-32h192c16,0 32,16 32,32v0H128v0z" />

  <!-- Subtle glow/secondary stroke (lower opacity) -->
  <path
    fill="none"
    stroke="#ffffff"
    stroke-opacity="0.30"
    stroke-width="16"
    stroke-linecap="round"
    stroke-linejoin="round"
    d="M256,128c-48,0 -96,32 -96,96s48,96 96,96s96,-32 96,-96S304,128 256,128z
       M352,352H160c-32,0 -64,32 -64,64v32h320v-32C416,384 384,352 352,352z" />
</svg>
